<svg id="visual" viewBox="0 0 1500 1024" width="1500" height="1024" xmlns="http://www.w3.org/2000/svg" xmlns:xlink="http://www.w3.org/1999/xlink" version="1.1"><rect x="0" y="0" width="1500" height="1024" fill="#FFFFFF"></rect><defs><linearGradient id="grad1_0" x1="31.7%" y1="0%" x2="100%" y2="100%"><stop offset="20.703125%" stop-color="#ffffff" stop-opacity="1"></stop><stop offset="79.296875%" stop-color="#ffffff" stop-opacity="1"></stop></linearGradient></defs><defs><linearGradient id="grad2_0" x1="0%" y1="0%" x2="68.3%" y2="100%"><stop offset="20.703125%" stop-color="#ffffff" stop-opacity="1"></stop><stop offset="79.296875%" stop-color="#ffffff" stop-opacity="1"></stop></linearGradient></defs><g transform="translate(1500, 0)"><path d="M0 499.5C-74.4 501 -148.7 502.5 -191.1 461.4C-233.5 420.3 -243.9 336.6 -289.2 289.2C-334.5 241.8 -414.6 230.8 -455.5 188.7C-496.3 146.5 -497.9 73.3 -499.5 0L0 0Z" fill="#FBAE3C"></path></g><g transform="translate(0, 1024)"><path d="M0 -499.5C70.3 -496.1 140.7 -492.8 190.2 -459.2C239.7 -425.5 268.4 -361.6 315.4 -315.4C362.4 -269.2 427.7 -240.7 461.4 -191.1C495.2 -141.5 497.3 -70.8 499.5 0L0 0Z" fill="#FBAE3C"></path></g></svg>