<svg id="visual" viewBox="0 0 1500 1024" width="1500" height="1024" xmlns="http://www.w3.org/2000/svg" xmlns:xlink="http://www.w3.org/1999/xlink" version="1.1"><rect x="0" y="0" width="1500" height="1024" fill="#FFFFFF"></rect><path d="M0 648L41.7 675.5C83.3 703 166.7 758 250 793.2C333.3 828.3 416.7 843.7 500 813.8C583.3 784 666.7 709 750 700.7C833.3 692.3 916.7 750.7 1000 769.8C1083.3 789 1166.7 769 1250 766.7C1333.3 764.3 1416.7 779.7 1458.3 787.3L1500 795L1500 1025L1458.3 1025C1416.7 1025 1333.3 1025 1250 1025C1166.7 1025 1083.3 1025 1000 1025C916.7 1025 833.3 1025 750 1025C666.7 1025 583.3 1025 500 1025C416.7 1025 333.3 1025 250 1025C166.7 1025 83.3 1025 41.7 1025L0 1025Z" fill="#F8373F" stroke-linecap="round" stroke-linejoin="miter"></path></svg>