<svg width="120" height="120" viewBox="0 0 120 120" fill="none" xmlns="http://www.w3.org/2000/svg">
<path d="M37.6438 69.7311C37.4278 69.7807 37.2019 69.7664 36.9938 69.6899H36.9883H36.9938L37.7794 69.9755L37.6438 69.7311Z" fill="#D6A85A"/>
<path d="M35.5869 58.2855H35.5925L35.6647 58.2755C35.6385 58.2766 35.6125 58.28 35.5869 58.2855Z" fill="#D6A85A"/>
<path d="M37.6425 69.7311C37.4264 69.7807 37.2006 69.7664 36.9925 69.69H36.9869H36.9925L37.778 69.9756L37.6425 69.7311ZM35.5925 58.2867L35.6647 58.2767C35.6388 58.2745 35.6128 58.2745 35.5869 58.2767L35.5925 58.2867Z" fill="#D6A85A"/>
<path d="M54.7581 59.5555C54.2114 59.1111 53.6903 58.6766 53.1703 58.2344C50.0781 55.6366 47.1636 53.18 41.4436 51.7589C40.9125 51.6655 40.2781 51.5455 39.5547 51.41C34.2825 50.4211 24.4759 48.5889 18.7036 50.27C18.0903 50.5044 16.3414 51.5044 13.697 53.0133C11.6303 54.1955 9.14807 55.6155 6.49363 57.0789C6.47252 57.3233 6.45696 57.5733 6.44141 57.8277C9.23141 56.2977 11.8492 54.7989 14.0092 53.5655C16.5392 52.1211 18.3603 51.0777 18.8981 50.8633C24.5114 49.2344 34.2236 51.0566 39.4459 52.0344C40.1636 52.17 40.7992 52.2844 41.3092 52.3733C46.8647 53.7577 49.7303 56.1677 52.7603 58.7177C53.2181 59.1033 53.6814 59.4955 54.1603 59.8844C53.837 60.44 53.4214 60.7633 52.8947 60.8844C51.1259 61.3011 48.5081 59.3122 47.107 58.24C46.8425 58.0477 46.6181 57.8755 46.4147 57.73C45.2859 57.0377 44.7703 56.8666 44.2703 57.0489H44.2603C42.5425 56.7677 35.9425 57.5477 35.657 57.5789L35.1825 57.6366L35.2092 57.6889C32.8925 57.8911 30.6536 58.3966 28.6981 59.1666L27.8647 59.5L28.7192 59.7711C33.8925 61.4 37.0525 64.45 38.1914 66.5733C38.827 67.76 38.2803 68.5355 38.0925 68.7488C37.8636 69.0144 37.557 69.16 37.3147 69.1344C35.4147 65.69 33.1925 65.4233 31.407 65.21L31.0381 65.1633H30.9547C26.5881 65.1633 22.3925 61.7022 20.1236 58.7355C17.9114 55.8466 15.457 57.4911 12.3459 59.5733C12.1114 59.7288 11.8725 59.8911 11.6281 60.0522L9.87918 61.2077L11.8903 60.6077C15.8359 59.4522 16.1892 60.1966 16.1947 60.2011C16.3059 60.4822 15.6325 61.4866 13.4936 62.6322C10.9381 63.9144 8.634 65.1133 6.58141 66.2288C6.59696 66.4577 6.62252 66.6866 6.64918 66.91C8.76252 65.7655 11.141 64.527 13.7847 63.1944C15.497 62.2733 17.1781 60.9455 16.7781 59.9622C16.501 59.2955 15.4147 59.1566 13.5192 59.5455C16.3459 57.7033 18.0014 57 19.6192 59.1111C21.977 62.1922 26.3592 65.7844 30.9525 65.7844H30.9781C31.0892 65.7944 31.207 65.81 31.327 65.8255C32.6436 65.9822 34.0859 66.1533 35.4647 67.6033C35.3192 67.5044 35.1736 67.4166 35.0281 67.3277C34.9492 67.2811 34.8659 67.2388 34.7881 67.1922C34.7103 67.1455 34.6114 67.0989 34.5225 67.0566C34.4336 67.0144 34.3514 66.9733 34.2625 66.9377C34.1736 66.9022 34.0914 66.8588 34.0025 66.8266L33.737 66.7155C33.4659 66.6166 33.1959 66.5288 32.9203 66.4555C32.8259 66.43 32.7381 66.4033 32.6436 66.3822C32.457 66.3411 32.2747 66.2988 32.0814 66.2577C32.0547 66.2574 32.0284 66.2521 32.0036 66.2422C31.8636 66.2155 31.7225 66.1955 31.577 66.1689C31.4314 66.1422 31.2703 66.1222 31.1136 66.1066C30.8581 66.0755 30.6036 66.0444 30.3436 66.0177C30.2859 66.0177 30.2236 66.0077 30.1659 66.0022L29.7392 65.9711C29.7204 65.9732 29.7013 65.9732 29.6825 65.9711C29.3959 65.95 29.1103 65.9344 28.8181 65.9189C28.7769 65.9124 28.7353 65.9087 28.6936 65.9077C28.527 65.9077 28.3603 65.8922 28.1881 65.8822H28.1625C24.7425 65.4088 23.9403 64.9244 20.9803 61.5622L20.7147 61.2655L20.4847 61.5877C18.4447 64.4766 14.0047 70.7588 8.6803 76.8744C8.74807 77.1088 8.82141 77.3433 8.90252 77.5722C12.567 73.3803 16.5259 68.2822 20.7792 62.2777C23.637 65.49 24.6047 66.02 28.1125 66.51H28.1692C31.5425 66.6922 34.207 66.8322 36.5547 69.3677C36.6151 69.4408 36.685 69.5054 36.7625 69.56C36.8259 69.6077 36.8964 69.6452 36.9714 69.6711C36.9714 69.6711 36.9814 69.6711 36.987 69.6811C36.9881 69.6827 36.9896 69.684 36.9913 69.685C36.9931 69.6859 36.995 69.6865 36.997 69.6866H37.0025C37.2106 69.7631 37.4364 69.7773 37.6525 69.7277C38.0154 69.6396 38.3403 69.437 38.5792 69.15C39.0947 68.5622 39.4125 67.49 38.7559 66.2611C37.627 64.1577 34.6236 61.1855 29.7725 59.4422C31.6578 58.8131 33.6146 58.423 35.597 58.2811C35.6228 58.2789 35.6489 58.2789 35.6747 58.2811H35.737C36.1692 58.4844 36.5392 58.64 36.8359 58.77C37.6736 59.1188 38.0581 59.28 38.4281 59.7911C38.637 60.0977 38.897 60.5922 39.1981 61.16C40.1403 62.9244 41.317 65.1311 42.6425 65.5311L42.6947 65.5422C45.2392 65.8755 46.1558 65.4433 46.2503 65.3911L46.5259 65.24C47.1613 65.5334 47.8515 65.6894 48.5514 65.6977C48.6452 65.6994 48.7391 65.696 48.8325 65.6877C48.9203 65.6877 49.0092 65.6777 49.0981 65.6666C49.187 65.6555 49.2958 65.6355 49.3992 65.6144C49.4825 65.5944 49.5714 65.5788 49.6592 65.5522C49.8556 65.4979 50.0485 65.4319 50.237 65.3544C50.3781 65.2922 50.5236 65.2244 50.6747 65.1466C50.7214 65.12 50.7681 65.0889 50.8203 65.0633L51.1792 64.8544L50.8692 64.5555C50.417 64.1111 49.9325 63.6555 49.4536 63.1966C49.0847 62.8533 48.7147 62.5 48.3425 62.1511C48.1036 61.9166 47.8636 61.6822 47.6347 61.4533C47.1614 60.98 46.7081 60.5066 46.2925 60.0322C46.1881 59.9133 46.0892 59.8033 45.9903 59.6844C45.5046 59.1237 45.0772 58.515 44.7147 57.8677C44.6681 57.7844 44.6214 57.6955 44.5803 57.6122C44.8025 57.5911 45.1581 57.7011 46.0681 58.2577C46.2447 58.3822 46.4636 58.5489 46.7192 58.7422C48.3114 59.9544 50.977 61.99 53.0381 61.5C53.8158 61.3177 54.4225 60.7922 54.8436 59.9444L54.9547 59.7222L54.7581 59.5555ZM44.6081 58.9C44.6492 58.9622 44.697 59.0255 44.7381 59.0933C44.7792 59.1611 44.827 59.2177 44.8736 59.2855C44.9203 59.3533 44.9936 59.4466 45.0559 59.53C45.1181 59.6133 45.1759 59.6866 45.2381 59.7644C45.3003 59.8422 45.3681 59.9255 45.4359 60.0033C45.5036 60.0811 45.5659 60.1644 45.6381 60.2433C45.7103 60.3222 45.7492 60.3733 45.8047 60.4355C45.8603 60.4977 45.9159 60.5611 45.977 60.6277C46.1851 60.8626 46.4036 61.097 46.6325 61.3311C46.9503 61.6644 47.2836 61.9922 47.617 62.32C47.8192 62.5177 48.0225 62.71 48.2258 62.9077C48.4903 63.1633 48.7514 63.4077 49.017 63.6577C49.3914 64.0111 49.7559 64.36 50.1147 64.7088C48.387 65.5055 46.7581 64.7977 45.6703 64.0266L44.2436 63.0266L45.227 64.4711C45.2381 64.4922 45.3992 64.7155 45.5658 64.9389C45.1281 65.0277 44.2592 65.1166 42.7881 64.9233C41.7214 64.57 40.5347 62.3422 39.7436 60.8644C39.4359 60.2811 39.1659 59.7766 38.9314 59.4277C38.447 58.7666 37.9314 58.5477 37.0736 58.1833C36.9947 58.1522 36.9225 58.1211 36.8392 58.09C39.1914 57.83 42.5592 57.5344 43.8914 57.6455C43.907 57.6822 43.9281 57.7233 43.9436 57.7655L44.037 57.9522C44.0681 58.0144 44.1047 58.0822 44.1359 58.1455C44.167 58.2089 44.2036 58.2644 44.2347 58.3222C44.2659 58.38 44.3136 58.4622 44.3547 58.5255C44.3959 58.5888 44.4325 58.6555 44.4747 58.7177C44.517 58.78 44.557 58.8377 44.6081 58.9Z" fill="#D6A85A"/>
<path d="M109.333 58.6456C109.521 59.27 111.111 60.8311 113.544 62.5744C113.544 62.3144 113.554 62.06 113.554 61.7967C111.353 60.1789 110.051 58.8456 109.937 58.4633C109.917 58.3911 109.937 58.3644 109.937 58.3522C110.197 58.0033 111.714 57.9467 113.456 57.9411C113.434 57.5256 113.403 57.1089 113.367 56.6978C111.144 56.5 108.744 56.2756 106.549 56.0733C103.222 55.7611 100.073 55.4689 98.4289 55.36L98.0278 55.3333L98.0956 55.7289C99.36 62.87 91.5223 67.9811 90.8345 68.4133H90.8189C90.2056 68.5245 89.6789 68.6167 89.2423 68.71L89.1311 68.7367L89.0634 68.83C89.0323 68.8711 86.1845 72.7489 84.4256 74.0711C83.9056 74.4622 83.3011 74.55 82.63 74.3422C81.63 74.0345 80.73 73.1034 80.5323 72.5934C80.6156 72.1922 81.8023 70.4489 82.7545 69.0378C83.4834 67.9767 84.2278 66.8778 84.8734 65.8533L84.6911 65.7222L84.8889 65.8211C85.6434 64.3178 87.1111 62.7244 88.5634 61.8611L88.9589 61.6156L88.6034 61.3333C88.5567 61.2978 84.1323 57.9611 80.3589 56.15C76.8923 54.4833 73.3011 54.7655 68.71 57.0611C65.2023 58.8144 63.3645 57.2944 63.1411 57.0922V57.0867C63.0789 56.9933 63.03 56.9044 62.98 56.8378C65.2289 56.4367 68.3045 55.0833 70.8078 53.9744C72.51 53.22 74.1234 52.5067 74.5978 52.5067C77.0423 52.6633 91.3523 52.8089 96.4578 52.6578L96.5511 52.6422C98.5511 51.9755 105.322 51.5022 112.634 51.18C112.598 50.9667 112.557 50.7522 112.514 50.5444C105.243 50.8667 98.5145 51.3511 96.3956 52.0278C91.2578 52.1789 77.0623 52.0278 74.6178 51.8767C74.02 51.8767 72.7445 52.4233 70.5478 53.3967C67.9089 54.5556 64.6245 56.0111 62.4445 56.2722L62.0078 56.3233L62.2 56.7189C62.3282 56.9759 62.4726 57.2246 62.6323 57.4633L62.6534 57.4944C63.3611 58.5778 64.8389 60.3156 66.9267 60.0822C67.6234 59.9878 68.5134 59.5822 69.5445 59.1133C71.9078 58.0411 75.1 56.5889 78.6267 57.6044C75.3478 60.0144 71.5278 63.1789 70.8356 65.2556L70.7567 65.4378C68.8889 69.7889 67.9411 72.6311 68.9723 73.3645C69.3411 73.6356 69.8256 73.7234 70.3611 73.6245C71.2411 73.4634 72.1778 72.8078 72.7089 72.18C73.5411 72.7211 74.7234 72.9656 75.41 72.45C76.0767 71.9511 77.1645 68.6922 77.2111 67.5367C77.8485 67.1983 78.4655 66.8229 79.0589 66.4122C78.2678 67.6933 77.6323 69.2489 77.6323 71.1334V71.4045L77.8978 71.4511C80.0534 71.81 80.6978 70.7689 81.26 68.3078C81.3489 68.25 81.4578 68.1878 81.5723 68.1256C82.1767 67.7656 82.8011 67.3967 83.35 67.0422C82.9867 67.5889 82.6111 68.1411 82.2389 68.6822C80.2711 71.5711 79.7823 72.3489 79.9167 72.7522C80.1311 73.3922 81.1556 74.5422 82.4411 74.9434C82.7205 75.033 83.0122 75.0787 83.3056 75.0789C83.8467 75.0779 84.3728 74.9008 84.8045 74.5745C86.5011 73.2989 89.0267 69.9311 89.4989 69.2967C89.8945 69.2133 90.3789 69.13 90.9311 69.0356C95.2089 68.2867 103.063 66.9122 103.137 60.49C106.424 62.4409 109.843 64.1606 113.369 65.6367C113.39 65.4144 113.406 65.2 113.421 64.9767C109.813 63.4584 106.322 61.6757 102.977 59.6433L102.459 59.3333L102.5 59.9422C102.833 65.6156 96.6611 67.3233 92.3245 68.1456C94.6778 66.3678 99.5756 61.8889 98.7889 56.0178C100.507 56.1422 103.422 56.4189 106.498 56.7044C108.714 56.9078 111.041 57.1267 113.181 57.3133C111.031 57.33 109.839 57.4444 109.439 57.98C109.367 58.0733 109.32 58.1831 109.301 58.2993C109.283 58.4156 109.294 58.5346 109.333 58.6456ZM81.2545 67.5822C81.0767 67.6811 80.9311 67.7689 80.8167 67.8367L80.7056 67.9045L80.6745 68.04C80.1123 70.5856 79.6023 71.0322 78.27 70.8667C78.3578 68.3889 79.6445 66.5045 80.7678 65.13L80.3234 64.6856C80.01 64.9411 78.3811 66.2522 76.7523 67.0645L76.53 67.1756L76.5767 67.41C76.7123 68.0711 75.51 71.59 75.0311 71.9489C74.5945 72.2822 73.5478 72.0689 72.84 71.5045L72.5745 71.2822L72.3823 71.5745C72.0023 72.1411 71.0756 72.8545 70.2478 73.0056C69.8789 73.0733 69.5811 73.0211 69.3367 72.8545C68.7911 72.4645 69.4678 70.0545 71.3367 65.6878L71.4256 65.4789C71.9556 63.8811 74.8245 61.1333 79.4978 57.75L79.9767 57.4011L79.4211 57.1978C75.4134 55.7533 71.8656 57.3644 69.2823 58.5411C68.2978 58.9856 67.4445 59.3733 66.8378 59.4567C65.7267 59.5822 64.7967 58.9944 64.1045 58.3067C65.1611 58.64 66.8011 58.7233 68.9867 57.6256C73.3856 55.4289 76.8045 55.1478 80.0789 56.7189C83.1756 58.2022 86.72 60.7422 87.8489 61.57C86.4545 62.5233 85.0856 64.0578 84.3467 65.51C83.9611 65.9889 82.1334 67.0611 81.2545 67.5822Z" fill="#D6A85A"/>
<path d="M23.2634 29.99L23.2779 30.0666C23.2634 30.0889 23.2201 30.1455 23.1523 30.2377C22.8479 30.6466 22.6597 30.9033 22.5879 31.0077C22.4768 31.1633 22.3179 31.4166 22.1012 31.7689C21.9437 31.7173 21.7791 31.6906 21.6134 31.69L18.9279 31.5155L17.8012 31.4877C17.6422 31.4896 17.4845 31.5158 17.3334 31.5655L17.2123 31.4066C17.2645 31.3389 17.3023 31.2877 17.3234 31.2544C17.5031 31.0188 17.6218 30.7425 17.669 30.45C17.683 30.1937 17.6309 29.9381 17.5179 29.7077C17.3804 29.4111 17.162 29.1593 16.8879 28.9811C16.3693 28.6233 15.8879 28.5748 15.4434 28.8355C15.2308 28.96 15.003 29.1981 14.7601 29.55C14.6575 29.6971 14.5679 29.8529 14.4923 30.0155C14.7708 30.2533 15.2712 30.6214 15.9934 31.12L18.3934 32.7777C19.1216 33.2815 19.609 33.5892 19.8556 33.7011C19.9004 33.724 19.9512 33.7326 20.001 33.7259C20.0509 33.7191 20.0974 33.6973 20.1345 33.6633C20.2822 33.5018 20.4213 33.3327 20.5512 33.1566L20.629 33.1433L20.9356 33.3555L20.9534 33.4289C20.7231 33.7252 20.3897 34.19 19.9534 34.8233C19.4986 35.4796 19.1823 35.9566 19.0045 36.2544L18.9312 36.2722L18.619 36.0566L18.6056 35.9789C18.7237 35.7954 18.832 35.6059 18.9301 35.4111C18.9493 35.3645 18.9536 35.3131 18.9424 35.264C18.9313 35.2149 18.9052 35.1704 18.8679 35.1366C18.6753 34.9455 18.2153 34.5981 17.4879 34.0944L15.0612 32.4166C14.3338 31.9144 13.8456 31.6066 13.5968 31.4933C13.5522 31.4706 13.5018 31.4621 13.4523 31.4691C13.4028 31.476 13.3566 31.4981 13.3201 31.5322C13.1722 31.6931 13.0331 31.8619 12.9034 32.0377L12.8256 32.0511L12.5134 31.8355L12.5034 31.7622C12.7256 31.474 13.059 31.0089 13.5034 30.3666C13.7612 29.9963 13.966 29.6907 14.1179 29.45C14.4186 28.9759 14.6482 28.624 14.8068 28.3944C15.1727 27.8655 15.4886 27.5096 15.7545 27.3266C15.9117 27.2095 16.0929 27.1288 16.2851 27.0904C16.4772 27.0519 16.6755 27.0567 16.8656 27.1044C17.077 27.1643 17.2763 27.2605 17.4545 27.3889C18.2871 27.9644 18.5538 28.8407 18.2545 30.0177C18.6179 30.0422 18.989 30.0589 19.3712 30.07L20.9468 30.1155C21.8764 30.1437 22.4319 30.1192 22.6134 30.0422C22.7261 29.9885 22.8207 29.9032 22.8856 29.7966L22.9634 29.7822L23.2634 29.99Z" fill="#D6A85A"/>
<path d="M28.0735 22.5966C28.433 23.0966 28.8293 23.569 29.2591 24.01V24.0877L26.3113 26.8722C25.8224 27.3411 25.4853 27.68 25.3002 27.8889H25.2224L25.1113 27.7777L25.0857 27.71C25.1624 27.3933 25.1968 27.2111 25.1791 27.1633C25.1546 27.0892 24.9983 26.8966 24.7102 26.5855L23.8579 25.6666L21.899 23.6266C21.2857 22.9889 20.8694 22.5903 20.6502 22.4311C20.6112 22.3993 20.5633 22.3803 20.5132 22.3769C20.463 22.3736 20.413 22.3859 20.3702 22.4122C20.1933 22.5409 20.0231 22.6784 19.8602 22.8244H19.7779L19.519 22.5555L19.5246 22.48C19.8098 22.237 20.2357 21.8433 20.8024 21.2989C21.3068 20.8159 22.2579 19.8874 23.6557 18.5133L23.7313 18.5033L24.1113 19C24.2313 19.1577 24.3335 19.2889 24.4224 19.3966L24.7557 19.7977V19.88L24.5213 20.1022H24.4435C24.0902 19.7411 23.8702 19.5533 23.7768 19.5466C23.7116 19.5377 23.539 19.6466 23.259 19.8733C22.979 20.1 22.7416 20.3074 22.5468 20.4955C22.3135 20.7177 22.0865 20.9537 21.8657 21.2033C22.2051 21.6256 22.5656 22.0306 22.9457 22.4166L23.7457 23.25C23.9679 23.0589 24.1479 22.9011 24.279 22.7744L24.8024 22.2655C25.0468 22.0255 25.1668 21.8722 25.1635 21.8033C25.1635 21.7144 25.0135 21.5055 24.7257 21.1789V21.1011L24.9746 20.8611H25.0535C25.3313 21.1722 25.5905 21.4522 25.8313 21.7011C26.0913 21.9722 26.3813 22.2637 26.7013 22.5755L26.6957 22.6489L26.4257 22.9089H26.3479C26.0516 22.6007 25.8542 22.4385 25.7557 22.4222C25.6572 22.4059 25.4902 22.4922 25.2546 22.6811C25.0791 22.8255 24.8979 22.9866 24.7135 23.1633C24.5291 23.34 24.3413 23.5333 24.1857 23.71L25.3635 24.9322C25.7013 25.2848 26.0346 25.6181 26.3635 25.9322L26.9113 25.4066C27.6935 24.654 28.1439 24.1622 28.2624 23.9311C28.2815 23.8974 28.2889 23.8583 28.2835 23.82C28.2516 23.7063 28.1993 23.5993 28.1291 23.5044L27.7457 22.9133V22.8311L27.9924 22.5955L28.0735 22.5966Z" fill="#D6A85A"/>
<path d="M34.9567 11.251L34.9333 11.331C34.7509 11.4515 34.5751 11.5817 34.4067 11.721C34.3704 11.7556 34.3457 11.8006 34.3362 11.8497C34.3266 11.8989 34.3326 11.9499 34.3533 11.9955C34.4518 12.2488 34.7337 12.7525 35.1989 13.5066L36.3855 15.4344C37.2611 16.8551 37.8518 17.7684 38.1578 18.1744L38.1233 18.2544C37.7278 18.4144 37.4311 18.5388 37.2344 18.6266C35.8004 18.197 33.2818 17.3507 29.6789 16.0877L31.5922 19.1988C32.0559 19.9521 32.3785 20.4303 32.56 20.6333C32.5916 20.6719 32.6344 20.6999 32.6825 20.7135C32.7306 20.727 32.7817 20.7254 32.8289 20.7088C33.0294 20.6217 33.2249 20.5234 33.4144 20.4144L33.4911 20.4321L33.69 20.7555L33.6689 20.8266C33.2922 21.0321 32.9489 21.231 32.6355 21.4244C32.2711 21.6466 31.9111 21.8814 31.5556 22.1288L31.4822 22.1155L31.2833 21.7933L31.3011 21.7155C31.4835 21.595 31.6593 21.4648 31.8278 21.3255C31.864 21.2907 31.8886 21.2455 31.8982 21.1962C31.9077 21.1468 31.9018 21.0957 31.8811 21.0499C31.7811 20.7973 31.4996 20.294 31.0367 19.5399L29.4889 17.0288C29.0244 16.2755 28.7019 15.7973 28.5211 15.5944C28.4893 15.5556 28.4463 15.5275 28.398 15.514C28.3497 15.5005 28.2984 15.5022 28.2511 15.5188C28.0512 15.6066 27.8562 15.7049 27.6667 15.8133L27.59 15.7944L27.3911 15.4721L27.4122 15.3999C27.7248 15.234 28.017 15.067 28.2889 14.8988C28.7156 14.6355 29.0667 14.4088 29.3344 14.2155C31.4085 15.0303 33.7507 15.8344 36.3611 16.6277L34.6511 13.8499C34.1867 13.0966 33.8637 12.6184 33.6822 12.4155C33.6506 12.3764 33.6076 12.3482 33.5593 12.3347C33.5109 12.3211 33.4595 12.323 33.4122 12.3399C33.2122 12.4274 33.0171 12.5257 32.8278 12.6344L32.7511 12.6166L32.5522 12.2933L32.5733 12.221C32.94 12.0221 33.2822 11.8233 33.6033 11.6266C34.0107 11.3755 34.3718 11.1399 34.6867 10.9199L34.76 10.9333L34.9567 11.251Z" fill="#D6A85A"/>
<path d="M49.0679 13.9489L49.0368 14.0177C48.2457 14.2526 47.7687 14.3963 47.6057 14.4489C46.9553 14.6607 46.3542 14.8685 45.8024 15.0722L45.739 15.0344L45.6279 14.7011L45.6624 14.6255L46.1124 14.4444C46.3035 14.3711 46.3779 14.27 46.3346 14.1433C46.2518 13.9795 46.1471 13.8278 46.0235 13.6922L45.229 12.7133C44.7387 12.8652 44.2394 13.0244 43.7313 13.1911C43.4542 13.2814 43.0468 13.4185 42.509 13.6022L42.4857 14.3255C42.4694 14.8744 42.4816 15.2107 42.5224 15.3344C42.5657 15.4677 42.6746 15.5211 42.849 15.4911C42.9461 15.4755 43.1313 15.4311 43.4046 15.3577L43.4746 15.3933L43.5857 15.7322L43.5501 15.8033C42.8887 15.9944 42.4646 16.1211 42.2779 16.1833C42.1298 16.23 41.7746 16.3574 41.2124 16.5655L41.1424 16.5355L41.0312 16.19L41.0724 16.1189C41.4301 15.9789 41.6301 15.8333 41.6724 15.6822C41.7146 15.5311 41.7872 14.6933 41.8901 13.1689L42.1468 9.25663C42.1609 8.95441 42.1842 8.49848 42.2168 7.88885L42.9701 7.64441L47.9357 13.34C48.1268 13.5555 48.269 13.6644 48.3701 13.6666C48.5494 13.6636 48.7268 13.6298 48.8946 13.5666L48.9624 13.61L49.0679 13.9489ZM44.779 12.1922L42.7368 9.7833L42.5568 12.9166C42.8501 12.8322 43.2235 12.7155 43.6924 12.5633C44.1613 12.4111 44.5001 12.2933 44.779 12.1922Z" fill="#D6A85A"/>
<path d="M55.2286 13.1112L55.1853 13.1734C54.8149 13.2 54.2442 13.2645 53.4731 13.3667C52.702 13.4689 52.1364 13.5541 51.7764 13.6223L51.7198 13.5734L51.6698 13.2023L51.7175 13.14C51.9331 13.1038 52.1467 13.0567 52.3575 12.9989C52.4047 12.9819 52.4455 12.9506 52.4742 12.9094C52.5028 12.8682 52.518 12.8191 52.5175 12.7689C52.5309 12.4978 52.4794 11.9234 52.3631 11.0456L51.9753 8.12115C51.8598 7.24486 51.7601 6.67671 51.6764 6.41671C51.6633 6.36831 51.6355 6.32516 51.597 6.29314C51.5584 6.26111 51.5108 6.24179 51.4609 6.23782C51.2427 6.23579 51.0246 6.2458 50.8075 6.26782L50.7453 6.22004L50.6953 5.84448L50.7442 5.78671C51.0998 5.76226 51.6686 5.69819 52.4509 5.59448C53.2331 5.49078 53.7968 5.40374 54.142 5.33337L54.2042 5.3756L54.2542 5.75115L54.2064 5.81449C53.9907 5.85013 53.7771 5.89724 53.5664 5.9556C53.5193 5.97266 53.4787 6.00376 53.4498 6.0447C53.421 6.08563 53.4055 6.13443 53.4053 6.18449C53.3927 6.45708 53.4446 7.03152 53.5609 7.90782L53.9486 10.8334C54.0649 11.7104 54.1645 12.2782 54.2475 12.5367C54.2601 12.5852 54.2876 12.6285 54.326 12.6606C54.3645 12.6926 54.412 12.7119 54.462 12.7156C54.6805 12.7176 54.899 12.7076 55.1164 12.6856L55.1797 12.7345L55.2286 13.1112Z" fill="#D6A85A"/>
<path d="M64.102 10.4911C64.0936 11.0753 63.892 11.6402 63.5287 12.0978C63.2116 12.5001 62.7882 12.8057 62.3065 12.98C61.783 13.1608 61.2295 13.2385 60.6765 13.2089C59.8802 13.1804 59.1006 12.973 58.3954 12.6022L58.332 12.4778C58.4431 12.0533 58.5209 11.4478 58.5443 10.6589L58.602 10.6055L58.9587 10.6166L59.0076 10.6733V10.8011C59.0043 11.0776 59.0184 11.3541 59.0498 11.6289C59.2133 11.9068 59.4574 12.1285 59.7498 12.2644C60.0932 12.4512 60.4757 12.5548 60.8665 12.5666C61.6028 12.5903 62.1213 12.3496 62.422 11.8444C62.5714 11.599 62.6552 11.3193 62.6654 11.0322C62.6802 10.5566 62.492 10.2107 62.1009 9.99442C61.801 9.85457 61.4819 9.75985 61.1543 9.71331C60.1617 9.53035 59.5113 9.31887 59.2031 9.07887C58.7417 8.71442 58.5224 8.16627 58.5454 7.43442C58.5691 6.6722 58.8443 6.07257 59.3709 5.63553C59.9287 5.17701 60.6909 4.96257 61.6576 4.9922C62.5265 5.02035 63.2243 5.18146 63.7509 5.47553L63.7854 5.61109C63.6714 6.134 63.6007 6.66544 63.5743 7.19998L63.5109 7.25442L63.1598 7.24331L63.1065 7.18553C63.1156 6.89484 63.1059 6.60387 63.0776 6.31442C62.9306 6.1059 62.7265 5.94425 62.4898 5.84887C62.1918 5.71268 61.8696 5.63714 61.542 5.62664C61.0443 5.61109 60.6461 5.73072 60.3476 5.98553C60.2105 6.1031 60.1005 6.24903 60.0253 6.41324C59.9501 6.57745 59.9115 6.75603 59.912 6.93664C59.8987 7.36405 60.0428 7.68294 60.3443 7.89331C60.5406 8.03035 61.0106 8.16961 61.7543 8.31109C61.832 8.32442 62.0476 8.36887 62.4032 8.4422C62.6093 8.48289 62.811 8.54354 63.0054 8.62331C63.3472 8.75169 63.6379 8.9881 63.8332 9.29664C64.0376 9.65995 64.1311 10.0752 64.102 10.4911Z" fill="#D6A85A"/>
<path d="M73.3346 12.2032C73.2163 12.7751 72.912 13.2916 72.4691 13.6721C72.0808 14.0089 71.6057 14.2299 71.0979 14.3099C70.5497 14.3897 69.9911 14.3617 69.4535 14.2277C68.6773 14.0506 67.9509 13.7013 67.3279 13.2055L67.2891 13.071C67.4846 12.6762 67.6698 12.094 67.8446 11.3244L67.9113 11.2821L68.2602 11.3599L68.2968 11.4255L68.2691 11.5499C68.2152 11.8207 68.1781 12.0946 68.1579 12.3699C68.2674 12.6732 68.4656 12.9365 68.7268 13.1255C69.0296 13.3735 69.3861 13.5474 69.768 13.6332C70.4872 13.794 71.0405 13.6547 71.428 13.2155C71.62 13.0017 71.7542 12.7424 71.8179 12.4621C71.9209 11.9977 71.8009 11.6225 71.4579 11.3366C71.1852 11.1439 70.8852 10.993 70.5679 10.8888C69.6324 10.5184 69.0361 10.1877 68.7791 9.89658C68.3931 9.45213 68.282 8.8725 68.4457 8.15769C68.6124 7.41695 68.9954 6.87954 69.5946 6.54547C70.228 6.20028 71.0165 6.13287 71.9602 6.34325C72.8091 6.53213 73.4646 6.82139 73.9268 7.21102L73.9346 7.34991C73.7247 7.84223 73.5556 8.35098 73.4291 8.87102L73.3568 8.91102L73.0146 8.83547L72.9724 8.7688C73.0364 8.48471 73.0813 8.19666 73.1068 7.90658C73.0021 7.67436 72.8318 7.47779 72.6168 7.34102C72.3498 7.15212 72.0475 7.01875 71.7279 6.9488C71.2413 6.83843 70.8276 6.88102 70.4868 7.07658C70.33 7.16655 70.1944 7.2894 70.0895 7.43669C69.9846 7.58399 69.9128 7.75225 69.8791 7.92991C69.7857 8.34695 69.8683 8.68732 70.1268 8.95102C70.2935 9.12139 70.7287 9.34621 71.4324 9.62547C71.5057 9.65213 71.7113 9.73658 72.0457 9.87658C72.2398 9.95512 72.4259 10.0522 72.6013 10.1666C72.9124 10.3567 73.1531 10.643 73.2868 10.9821C73.4212 11.3759 73.4378 11.8002 73.3346 12.2032Z" fill="#D6A85A"/>
<path d="M83.03 18.9244L82.9611 18.9544C82.22 18.591 81.7711 18.3722 81.6155 18.301C80.9948 18.0166 80.4122 17.7622 79.8677 17.5377L79.8455 17.4666L79.9911 17.1477L80.0677 17.1144L80.5211 17.291C80.7111 17.3655 80.8344 17.3422 80.89 17.221C80.9392 17.0448 80.965 16.8629 80.9666 16.6799L81.0455 15.421C80.5825 15.1988 80.1074 14.9766 79.62 14.7544C79.3548 14.6359 78.9629 14.4603 78.4444 14.2277L77.9377 14.7444C77.5544 15.1377 77.3344 15.3933 77.2811 15.511C77.2277 15.6288 77.2666 15.7522 77.4144 15.8444C77.4966 15.8977 77.6622 15.9899 77.9133 16.121L77.941 16.1944L77.7922 16.5188L77.7188 16.5466C77.1022 16.241 76.7044 16.0455 76.5255 15.9644C76.387 15.8999 76.0392 15.7518 75.4822 15.5199L75.4521 15.451L75.6033 15.1177L75.6822 15.0933C76.0388 15.2322 76.2855 15.2599 76.4188 15.1777C76.5522 15.0955 77.1733 14.5288 78.2822 13.4744L81.1111 10.7777C81.3266 10.5659 81.6526 10.247 82.0889 9.82104L82.8089 10.1544L82.6022 17.7099C82.5955 17.9977 82.6289 18.1766 82.7 18.2455C82.8347 18.3633 82.9879 18.4583 83.1533 18.5266L83.1733 18.6033L83.03 18.9244ZM81.0633 14.7244L81.1955 11.571L78.94 13.7522C79.2118 13.8892 79.5692 14.0588 80.0122 14.261C80.4411 14.4573 80.7914 14.6118 81.0633 14.7244Z" fill="#D6A85A"/>
<path d="M96.6055 19.8756L96.5232 19.8811C96.211 19.6656 96.0277 19.5478 95.9755 19.5222C95.9302 19.5005 95.8794 19.4933 95.8299 19.5014C95.7805 19.5096 95.7347 19.5327 95.6988 19.5678C95.4958 19.7485 95.121 20.1874 94.5743 20.8845L93.1777 22.6667C92.1481 23.9808 91.4962 24.8511 91.2221 25.2778L91.1344 25.2722C90.8477 24.9582 90.6284 24.7226 90.4766 24.5656C90.3825 23.07 90.3032 20.4145 90.2388 16.5989L87.9888 19.4689C87.4421 20.166 87.1055 20.6345 86.9788 20.8745C86.9534 20.9176 86.9418 20.9675 86.9458 21.0174C86.9498 21.0673 86.9691 21.1148 87.001 21.1534C87.1523 21.3103 87.3122 21.4586 87.4799 21.5978L87.4899 21.6756L87.2555 21.9745L87.1799 21.98C86.8577 21.6978 86.5518 21.4434 86.2621 21.2167C85.9258 20.9522 85.581 20.696 85.2277 20.4478L85.2144 20.3745L85.4488 20.0767L85.5266 20.0667C85.7025 20.1959 85.8854 20.3153 86.0744 20.4245C86.1194 20.4468 86.1702 20.4545 86.2198 20.4466C86.2694 20.4386 86.3153 20.4153 86.351 20.38C86.5547 20.1993 86.9295 19.7608 87.4755 19.0645L89.2955 16.7422C89.8414 16.046 90.1777 15.5774 90.3044 15.3367C90.3303 15.2938 90.3422 15.2439 90.3384 15.1939C90.3346 15.1439 90.3153 15.0963 90.2832 15.0578C90.132 14.9009 89.9721 14.7525 89.8044 14.6134L89.7955 14.5356L90.0288 14.2367H90.1032C90.3666 14.4711 90.6255 14.6878 90.881 14.8856C91.2766 15.1945 91.6099 15.4426 91.881 15.63C91.8321 17.8597 91.8895 20.3352 92.0532 23.0567L94.0655 20.49C94.6121 19.793 94.9488 19.3245 95.0755 19.0845C95.1012 19.0412 95.1128 18.9911 95.1088 18.9409C95.1048 18.8908 95.0854 18.8431 95.0532 18.8045C94.9013 18.6482 94.7415 18.4999 94.5743 18.36L94.5655 18.2822L94.7988 17.9834H94.8732C95.1881 18.2574 95.4932 18.5108 95.7888 18.7434C96.1655 19.04 96.5121 19.2989 96.8266 19.5156L96.8399 19.5889L96.6055 19.8756Z" fill="#D6A85A"/>
<path d="M99.274 32.8445L98.6685 33C97.8224 32.6441 97.0815 32.0777 96.5163 31.3545C95.2985 29.8419 95.0107 28.3696 95.6529 26.9378C95.952 26.2711 96.407 25.6861 96.9796 25.2322C97.93 24.4685 98.9418 24.1748 100.015 24.3511C101.116 24.5289 102.116 25.177 103.015 26.2956C103.587 27.0076 104.024 27.8189 104.303 28.6889L104.283 28.8C103.735 29.0639 103.214 29.381 102.727 29.7467H102.653L102.447 29.4911L102.46 29.4089C102.704 29.2119 102.935 28.9996 103.152 28.7733C103.269 28.0837 103.053 27.3967 102.503 26.7122C101.936 26.0078 101.27 25.6374 100.503 25.6011C99.7363 25.5648 98.9703 25.8519 98.2052 26.4622C97.1681 27.2933 96.6607 28.2882 96.6829 29.4467C96.6933 30.063 96.9544 30.6904 97.4663 31.3289C97.9501 31.9185 98.5744 32.377 99.2818 32.6622L99.274 32.8445Z" fill="#D6A85A"/>
<path d="M104.445 40.23C103.864 40.4329 103.298 40.6783 102.753 40.9644L102.678 40.9411L100.847 37.3222C100.537 36.7211 100.309 36.3011 100.16 36.0633L100.185 35.9889L100.323 35.9166L100.396 35.9111C100.678 36.0755 100.84 36.1577 100.892 36.1566C100.971 36.1566 101.2 36.0589 101.58 35.8722L102.698 35.3166L105.211 34.02C105.997 33.6155 106.498 33.33 106.713 33.1633C106.755 33.1347 106.786 33.0941 106.804 33.047C106.821 32.9998 106.823 32.9485 106.81 32.9C106.738 32.6938 106.654 32.4916 106.56 32.2944L106.585 32.22L106.918 32.0466L106.988 32.0722C107.14 32.4151 107.396 32.9359 107.757 33.6344C108.077 34.2551 108.696 35.4311 109.613 37.1622L109.602 37.2366L109.02 37.4589C108.835 37.5289 108.677 37.5911 108.55 37.6444L108.072 37.8477L107.991 37.8255L107.843 37.5389L107.867 37.4633C108.311 37.2285 108.554 37.07 108.595 36.9877C108.623 36.9277 108.567 36.7314 108.428 36.3989C108.29 36.0655 108.159 35.7789 108.035 35.5389C107.886 35.2507 107.725 34.9659 107.55 34.6844C107.183 34.8207 106.694 35.0489 106.082 35.3689L105.057 35.8966C105.176 36.167 105.277 36.3829 105.36 36.5444L105.693 37.1911C105.855 37.4933 105.967 37.6522 106.035 37.6677C106.121 37.69 106.361 37.61 106.757 37.4266L106.832 37.4511L106.99 37.7588L106.967 37.8333C106.59 38.0111 106.248 38.1792 105.94 38.3377C105.607 38.5096 105.245 38.7048 104.856 38.9233L104.786 38.8966L104.613 38.5633L104.638 38.4877C105.018 38.2922 105.23 38.1544 105.273 38.06C105.317 37.9655 105.281 37.7855 105.162 37.5044C105.075 37.2955 104.972 37.0755 104.855 36.8477C104.737 36.62 104.607 36.3866 104.482 36.1866L102.97 36.9644C102.538 37.1866 102.122 37.4114 101.725 37.6389L102.072 38.3122C102.57 39.2751 102.913 39.847 103.101 40.0277C103.127 40.0541 103.161 40.072 103.197 40.0788C103.315 40.0801 103.432 40.0598 103.542 40.0189L104.219 39.8222L104.299 39.8433L104.455 40.1455L104.445 40.23Z" fill="#D6A85A"/>
<path d="M16.6733 94.6522L16.5933 94.6367C16.5778 94.6133 16.5389 94.5522 16.4766 94.4511C16.1981 94.0015 16.0229 93.7222 15.9511 93.6133C15.84 93.45 15.6589 93.1967 15.4011 92.8545C15.5115 92.7211 15.6 92.5711 15.6633 92.41L16.8555 89.8889L17.31 88.8133C17.3693 88.6597 17.4046 88.4978 17.4144 88.3333L17.6133 88.2778C17.6589 88.3533 17.6944 88.4089 17.7166 88.4433C17.8747 88.7074 18.0962 88.9278 18.3611 89.0845C18.6022 89.1967 18.8683 89.2442 19.1333 89.2222C19.4722 89.2023 19.7985 89.0867 20.0744 88.8889C20.6166 88.5267 20.8455 88.0811 20.7655 87.5556C20.7255 87.3037 20.5829 86.9937 20.3378 86.6256C20.2347 86.4705 20.1184 86.3248 19.99 86.19C19.6544 86.3663 19.1089 86.7078 18.3533 87.2145L15.8411 88.8945C15.0789 89.4041 14.5974 89.757 14.3967 89.9533C14.3573 89.9874 14.3295 90.0329 14.3174 90.0836C14.3052 90.1342 14.3092 90.1873 14.3289 90.2356C14.427 90.4397 14.5364 90.6381 14.6567 90.83L14.64 90.91L14.3178 91.1256L14.2411 91.1133C14.047 90.7808 13.7267 90.2811 13.28 89.6145C12.82 88.9256 12.4807 88.4389 12.2622 88.1545L12.2733 88.0778L12.6 87.8556L12.68 87.8711C12.8113 88.0557 12.953 88.2326 13.1044 88.4011C13.1417 88.4373 13.1894 88.461 13.2407 88.4689C13.292 88.4769 13.3446 88.4687 13.3911 88.4456C13.6496 88.3337 14.16 88.0226 14.9222 87.5122L17.4644 85.8133C18.2259 85.303 18.7074 84.95 18.9089 84.7544C18.9482 84.7203 18.9759 84.6749 18.9883 84.6243C19.0006 84.5738 18.9969 84.5206 18.9778 84.4722C18.8773 84.2683 18.766 84.0699 18.6444 83.8778L18.6611 83.7978L18.9878 83.5756L19.0633 83.5933C19.2544 83.92 19.5733 84.4211 20.0244 85.0933C20.2852 85.483 20.5018 85.7967 20.6744 86.0345C21.0166 86.5056 21.2689 86.86 21.4289 87.1011C21.7992 87.6559 22.0215 88.0959 22.0955 88.4211C22.1505 88.6187 22.1605 88.826 22.1247 89.0279C22.089 89.2298 22.0084 89.4211 21.8889 89.5878C21.7504 89.7689 21.5812 89.9242 21.3889 90.0467C20.5192 90.6289 19.5733 90.5522 18.5511 89.8167C18.3904 90.1567 18.2318 90.5085 18.0755 90.8722L17.4322 92.3733C17.0507 93.2622 16.8618 93.8082 16.8655 94.0111C16.8746 94.1401 16.9209 94.2636 16.9989 94.3667L16.9833 94.4467L16.6733 94.6522Z" fill="#D6A85A"/>
<path d="M25.2223 100.72C24.7159 101.108 24.2387 101.533 23.7945 101.991H23.7134L20.7401 99.0222C20.2401 98.5296 19.879 98.1908 19.6567 98.0056V97.9245L19.7678 97.8134L19.8356 97.7833C20.169 97.8545 20.3556 97.8811 20.4045 97.8645C20.4812 97.8367 20.6756 97.6678 20.989 97.36L21.9078 96.45L23.9623 94.3589C24.6045 93.7056 25.0053 93.2611 25.1645 93.0256C25.1959 92.9839 25.2136 92.9336 25.2152 92.8814C25.2168 92.8293 25.2022 92.7779 25.1734 92.7345C25.0348 92.5546 24.8864 92.3825 24.729 92.2189V92.1378L25.0045 91.8578H25.0823C25.343 92.1474 25.7638 92.5771 26.3445 93.1467C26.863 93.6541 27.8538 94.6111 29.3167 96.0178L29.329 96.0956L28.8256 96.5C28.6667 96.63 28.5334 96.7411 28.4245 96.8333L28.019 97.1878H27.9334L27.6934 96.9522V96.8711C28.0578 96.4948 28.2453 96.26 28.2556 96.1667C28.2623 96.0985 28.1441 95.9234 27.9012 95.6411C27.6578 95.3589 27.4345 95.1178 27.2345 94.9222C26.9953 94.6867 26.7441 94.4585 26.4812 94.2378C26.1664 94.4963 25.759 94.8811 25.259 95.3922L24.4201 96.2456C24.6245 96.4737 24.7938 96.6533 24.9278 96.7845L25.4723 97.3122C25.7278 97.5582 25.8908 97.6774 25.9612 97.67C26.0545 97.6648 26.266 97.5078 26.5956 97.1989H26.6767L26.9323 97.45V97.5311C26.619 97.8274 26.3364 98.1037 26.0845 98.36C25.8123 98.6389 25.519 98.9467 25.2067 99.2889H25.129L24.8534 99.0178V98.9367C25.1638 98.6196 25.326 98.41 25.3401 98.3078C25.3534 98.2056 25.259 98.0356 25.0545 97.7978C24.9012 97.62 24.729 97.4367 24.539 97.2511C24.349 97.0656 24.1456 96.8767 23.959 96.72L22.7223 97.9833C22.369 98.3433 22.0327 98.6993 21.7134 99.0511L22.2745 99.6067C23.0782 100.395 23.6016 100.846 23.8445 100.961C23.8786 100.979 23.9174 100.986 23.9556 100.981C24.0719 100.944 24.1806 100.886 24.2767 100.811L24.8778 100.397H24.9634L25.2156 100.643L25.2223 100.72Z" fill="#D6A85A"/>
<path d="M38.9495 103.248L38.8651 103.263C38.6688 103.15 38.4667 103.047 38.2595 102.956C38.2107 102.938 38.1577 102.936 38.1077 102.95C38.0577 102.964 38.0133 102.993 37.9806 103.033C37.791 103.242 37.4543 103.736 36.9706 104.514L35.7306 106.508C34.8173 107.977 34.2432 108.947 34.0084 109.418H33.9173C33.5862 109.126 33.334 108.908 33.1606 108.763C32.8962 107.234 32.5166 104.507 32.0218 100.582L30.0218 103.791C29.538 104.57 29.244 105.09 29.1395 105.352C29.118 105.4 29.1117 105.452 29.1215 105.504C29.1312 105.555 29.1565 105.602 29.194 105.638C29.3677 105.783 29.5491 105.919 29.7373 106.044L29.7562 106.123L29.5484 106.457L29.4718 106.47C29.1095 106.222 28.7662 106 28.4429 105.792C28.0673 105.557 27.6832 105.332 27.2906 105.117L27.2695 105.042L27.4773 104.709L27.5562 104.69C27.7525 104.803 27.9546 104.906 28.1618 104.998C28.2105 105.016 28.2637 105.018 28.3137 105.004C28.3638 104.99 28.4082 104.961 28.4406 104.92C28.631 104.711 28.968 104.217 29.4518 103.439L31.0662 100.842C31.5506 100.064 31.8447 99.5441 31.9484 99.2811C31.9701 99.2338 31.9765 99.181 31.967 99.1299C31.9574 99.0788 31.9323 99.0318 31.8951 98.9955C31.7207 98.8511 31.539 98.7157 31.3506 98.59L31.3329 98.5111L31.5395 98.1778L31.6173 98.1644C31.9151 98.3778 32.2062 98.5711 32.4873 98.7455C32.9318 99.0211 33.3043 99.2392 33.6051 99.4C33.8051 101.704 34.1418 104.248 34.6151 107.033L36.4006 104.162C36.8851 103.384 37.1792 102.863 37.2829 102.601C37.3045 102.554 37.311 102.501 37.3014 102.45C37.2919 102.399 37.2668 102.352 37.2295 102.316C37.0558 102.17 36.8745 102.035 36.6862 101.909L36.6684 101.83L36.8751 101.497L36.9518 101.483C37.3062 101.731 37.6473 101.958 37.9784 102.163C38.4006 102.426 38.7862 102.652 39.1351 102.842L39.1573 102.917L38.9495 103.248Z" fill="#D6A85A"/>
<path d="M47.0342 114.234L46.9664 114.274C46.1597 113.988 45.6723 113.817 45.5042 113.763C44.8301 113.541 44.2005 113.348 43.6153 113.184L43.5842 113.113L43.6953 112.768L43.7686 112.724L44.2564 112.852C44.4609 112.907 44.5897 112.868 44.6286 112.741C44.6578 112.554 44.6623 112.363 44.642 112.174L44.5742 110.87C44.0705 110.699 43.5549 110.527 43.0275 110.356C42.7409 110.262 42.3146 110.127 41.7486 109.951L41.2886 110.544C40.9397 110.994 40.7446 111.283 40.7031 111.41C40.6575 111.55 40.7175 111.661 40.8808 111.743C40.972 111.789 41.1531 111.864 41.4275 111.966L41.4642 112.039L41.3531 112.391L41.2797 112.427C40.6131 112.185 40.1805 112.033 39.982 111.97C39.8338 111.921 39.4586 111.81 38.8564 111.637L38.8164 111.569L38.9331 111.212L39.012 111.177C39.3964 111.277 39.6523 111.277 39.7797 111.177C39.9071 111.076 40.479 110.417 41.4953 109.199L44.0953 106.077L44.9842 104.974L45.762 105.228L46.4486 113.03C46.4775 113.327 46.532 113.507 46.6142 113.569C46.7667 113.674 46.9357 113.754 47.1142 113.804L47.1431 113.881L47.0342 114.234ZM44.5097 110.146L44.2697 106.889L42.2075 109.403C42.5038 109.511 42.8923 109.643 43.3731 109.799C43.8386 109.946 44.222 110.062 44.5097 110.146Z" fill="#D6A85A"/>
<path d="M54.7337 115.371L54.6749 115.421C54.296 115.349 53.706 115.263 52.9071 115.16C52.1082 115.057 51.5226 114.996 51.1371 114.969L51.0938 114.906L51.1426 114.522L51.2071 114.471C51.4323 114.493 51.6586 114.503 51.8849 114.5C51.9368 114.496 51.9861 114.475 52.0259 114.442C52.0658 114.408 52.0941 114.363 52.1071 114.312C52.1915 114.043 52.2919 113.454 52.4082 112.544L52.796 109.512C52.913 108.602 52.9637 108.006 52.9482 107.726C52.9482 107.673 52.9321 107.623 52.9021 107.58C52.872 107.537 52.8295 107.505 52.7804 107.488C52.5609 107.429 52.3383 107.381 52.1138 107.346L52.0638 107.28L52.1126 106.889L52.1771 106.844C52.54 106.915 53.1271 107.002 53.9382 107.104C54.7437 107.208 55.3326 107.27 55.7026 107.294L55.7526 107.353L55.7038 107.743L55.6393 107.793C55.4137 107.772 55.187 107.763 54.9604 107.766C54.9086 107.77 54.8594 107.79 54.8196 107.824C54.7798 107.857 54.7514 107.902 54.7382 107.952C54.6538 108.221 54.5534 108.81 54.4371 109.72L54.0493 112.753C53.9337 113.662 53.883 114.258 53.8971 114.54C53.8973 114.592 53.9135 114.643 53.9435 114.685C53.9736 114.727 54.0159 114.759 54.0649 114.777C54.2845 114.836 54.507 114.884 54.7315 114.92L54.7815 114.984L54.7337 115.371Z" fill="#D6A85A"/>
<path d="M64.942 112.778C64.9761 113.382 64.8088 113.98 64.4665 114.479C64.1673 114.919 63.7497 115.266 63.262 115.479C62.7348 115.705 62.1688 115.825 61.5954 115.835C60.7706 115.864 59.9499 115.706 59.1943 115.375L59.1187 115.25C59.2099 114.806 59.2391 114.176 59.2065 113.361L59.2621 113.3L59.6321 113.286L59.6854 113.342L59.691 113.475C59.7081 113.76 59.7426 114.044 59.7943 114.326C59.9432 114.568 60.1999 114.77 60.5643 114.932C60.9336 115.1 61.3368 115.179 61.7421 115.163C62.5043 115.134 63.0228 114.847 63.2976 114.303C63.4338 114.039 63.4996 113.743 63.4887 113.446C63.4695 112.953 63.2498 112.609 62.8298 112.413C62.5092 112.291 62.1722 112.216 61.8298 112.191C60.7928 112.073 60.1091 111.902 59.7787 111.676C59.2758 111.333 59.0091 110.783 58.9787 110.025C58.9476 109.236 59.1884 108.596 59.701 108.104C60.2432 107.59 61.0147 107.312 62.0154 107.272C62.9169 107.237 63.6506 107.352 64.2165 107.619L64.262 107.756C64.1823 108.305 64.1481 108.86 64.1598 109.415L64.0987 109.475L63.7354 109.489L63.6754 109.433C63.6634 109.132 63.6322 108.832 63.582 108.534C63.4147 108.33 63.1916 108.178 62.9398 108.098C62.6202 107.98 62.2803 107.926 61.9398 107.94C61.4213 107.962 61.0187 108.114 60.7321 108.399C60.5988 108.531 60.4957 108.69 60.4297 108.865C60.3637 109.04 60.3365 109.228 60.3498 109.415C60.3676 109.859 60.5402 110.178 60.8676 110.371C61.081 110.498 61.5772 110.609 62.3565 110.705C62.4365 110.713 62.6643 110.743 63.0354 110.793C63.2517 110.82 63.4649 110.868 63.672 110.936C64.0343 111.044 64.3516 111.267 64.5765 111.571C64.813 111.929 64.94 112.349 64.942 112.778Z" fill="#D6A85A"/>
<path d="M74.8588 110.83C75.0079 111.417 74.9587 112.036 74.7188 112.592C74.5102 113.082 74.1674 113.503 73.7299 113.807C73.2554 114.129 72.7224 114.356 72.161 114.473C71.3574 114.661 70.5218 114.665 69.7165 114.484L69.6188 114.373C69.6188 113.918 69.5288 113.291 69.3388 112.498L69.3821 112.428L69.7421 112.342L69.8065 112.387L69.8376 112.516C69.9083 112.793 69.9966 113.066 70.1021 113.332C70.2947 113.54 70.5854 113.689 70.9743 113.777C71.3689 113.869 71.7797 113.869 72.1743 113.777C72.9151 113.6 73.3673 113.22 73.531 112.634C73.6136 112.348 73.6213 112.046 73.5532 111.756C73.4399 111.276 73.158 110.98 72.7076 110.867C72.37 110.808 72.0255 110.8 71.6854 110.842C70.6484 110.926 69.9447 110.889 69.5743 110.731C69.0143 110.492 68.6465 110.003 68.471 109.264C68.2888 108.496 68.4021 107.821 68.811 107.241C69.2443 106.631 69.948 106.21 70.9221 105.979C71.7999 105.77 72.5406 105.742 73.1443 105.896L73.2154 106.021C73.244 106.575 73.3184 107.126 73.4376 107.668L73.3888 107.739L73.0354 107.823L72.9654 107.78C72.8956 107.487 72.8069 107.198 72.6999 106.917C72.497 106.747 72.249 106.641 71.9865 106.611C71.6519 106.556 71.3097 106.569 70.9799 106.648C70.4765 106.768 70.111 106.994 69.8821 107.331C69.7765 107.486 69.7058 107.662 69.6749 107.846C69.644 108.031 69.6537 108.22 69.7032 108.401C69.8054 108.832 70.0362 109.112 70.3954 109.241C70.6288 109.323 71.1365 109.335 71.9188 109.277C72.0002 109.269 72.2288 109.254 72.6043 109.233C72.8214 109.217 73.0395 109.223 73.2554 109.25C73.6309 109.285 73.9849 109.441 74.2643 109.694C74.5697 110.006 74.7764 110.401 74.8588 110.83Z" fill="#D6A85A"/>
<path d="M87.4511 108.32L87.4289 108.394C86.6481 108.745 86.1778 108.958 86.0178 109.034C85.38 109.343 84.7955 109.639 84.2522 109.923L84.18 109.894L84.0222 109.567L84.0467 109.483L84.4911 109.24C84.6778 109.138 84.7411 109.023 84.68 108.899C84.5724 108.743 84.4442 108.602 84.2989 108.48L83.3478 107.583C82.8663 107.806 82.3752 108.038 81.8744 108.28C81.6033 108.411 81.2026 108.609 80.6722 108.872L80.7489 109.618C80.8067 110.183 80.86 110.528 80.9244 110.649C80.9889 110.77 81.1067 110.82 81.2811 110.76C81.3789 110.731 81.5622 110.66 81.8367 110.547L81.9133 110.573L82.0744 110.907L82.0467 110.983C81.3948 111.272 80.9767 111.461 80.7922 111.549C80.65 111.618 80.3026 111.798 79.75 112.089L79.6755 112.068L79.5122 111.734L79.5444 111.654C79.8933 111.462 80.0778 111.286 80.1 111.124C80.1222 110.963 80.0811 110.092 79.9733 108.51L79.6955 104.456C79.6689 104.143 79.6318 103.672 79.5844 103.042L80.3244 102.686L86.2133 107.851C86.4355 108.046 86.6044 108.139 86.7055 108.128C86.889 108.099 87.0663 108.04 87.23 107.952L87.3044 107.987L87.4511 108.32ZM82.8011 107.111L80.3722 104.919L80.6189 108.161C80.9078 108.034 81.2781 107.862 81.73 107.643C82.1744 107.429 82.5315 107.252 82.8011 107.111Z" fill="#D6A85A"/>
<path d="M93.2241 94.2967L93.2119 94.3822C93.0416 94.5315 92.8795 94.6898 92.7264 94.8567C92.6944 94.8976 92.6757 94.9474 92.6729 94.9992C92.6701 95.0511 92.6834 95.1026 92.7108 95.1467C92.8486 95.3919 93.2093 95.8685 93.793 96.5767L95.2853 98.3867C96.3875 99.72 97.1241 100.572 97.4953 100.942L97.4708 101.031C97.0871 101.253 96.8001 101.423 96.6097 101.539C95.0741 101.301 92.3682 100.791 88.4919 100.009L90.8964 102.924C91.4808 103.632 91.8801 104.076 92.0941 104.258C92.1321 104.293 92.1802 104.316 92.2317 104.323C92.2832 104.331 92.3357 104.322 92.3819 104.298C92.574 104.18 92.7595 104.051 92.9375 103.912L93.0186 103.919L93.2686 104.223L93.2575 104.3C92.9004 104.564 92.5753 104.818 92.2819 105.06C91.9397 105.342 91.6034 105.634 91.273 105.937H91.1953L90.9453 105.633L90.953 105.551C91.1234 105.402 91.2855 105.244 91.4386 105.077C91.4706 105.036 91.4891 104.986 91.4917 104.934C91.4943 104.882 91.4808 104.831 91.453 104.787C91.316 104.541 90.9556 104.064 90.3719 103.357L88.4308 101C87.8464 100.292 87.4467 99.8474 87.2319 99.6667C87.1943 99.631 87.1464 99.6079 87.095 99.6007C87.0436 99.5935 86.9912 99.6026 86.9453 99.6267C86.7536 99.7453 86.5682 99.8736 86.3897 100.011L86.3086 100.004L86.0586 99.7011L86.0697 99.6245C86.3675 99.4089 86.643 99.1956 86.8997 98.9856C87.2997 98.6522 87.6264 98.37 87.8753 98.1345C90.1227 98.6789 92.6412 99.1711 95.4308 99.6111L93.2775 97C92.693 96.2919 92.2934 95.8474 92.0786 95.6667C92.0408 95.6309 91.9927 95.6078 91.9411 95.6006C91.8895 95.5934 91.837 95.6025 91.7908 95.6267C91.5987 95.7449 91.4132 95.8736 91.2353 96.0122L91.1541 96.0045L90.903 95.7011L90.9153 95.6245C91.2627 95.3682 91.5867 95.1159 91.8875 94.8678C92.2697 94.5511 92.6075 94.2589 92.8986 93.9878H92.9764L93.2241 94.2967Z" fill="#D6A85A"/>
<path d="M105.02 90.2222L105.329 90.7899C105.184 91.7303 104.802 92.6181 104.218 93.3688C103.001 94.9703 101.594 95.6277 99.9953 95.341C99.2501 95.207 98.5482 94.8956 97.9486 94.4333C96.9419 93.6703 96.3934 92.7266 96.303 91.6022C96.2067 90.4503 96.6079 89.2818 97.5064 88.0966C98.0794 87.3444 98.786 86.7041 99.5908 86.2077L99.7019 86.2C100.104 86.6835 100.554 87.126 101.043 87.5211L101.058 87.5977L100.851 87.87L100.766 87.8766C100.507 87.6818 100.236 87.503 99.9542 87.3411C99.2297 87.3959 98.5927 87.7855 98.0431 88.5099C97.4779 89.2559 97.2705 90.0196 97.4208 90.8011C97.5712 91.5825 98.0527 92.2814 98.8653 92.8977C99.9608 93.7303 101.089 93.9896 102.249 93.6755C102.866 93.511 103.432 93.091 103.944 92.4155C104.417 91.7816 104.723 91.0387 104.833 90.2555L105.02 90.2222Z" fill="#D6A85A"/>
<path d="M108.922 80.6078C109.453 80.9585 110.011 81.2693 110.588 81.5378L110.616 81.6145L108.796 85.4C108.5 86.0341 108.299 86.4867 108.193 86.7578L108.116 86.7856L107.969 86.7167L107.919 86.66C107.877 86.3252 107.84 86.1374 107.808 86.0967C107.757 86.0345 107.535 85.906 107.142 85.7112L105.979 85.1434L103.326 83.8889C102.497 83.4978 101.946 83.2656 101.674 83.1923C101.624 83.1765 101.571 83.1764 101.522 83.1919C101.472 83.2074 101.429 83.2378 101.397 83.2789C101.273 83.4685 101.159 83.6647 101.056 83.8667L100.979 83.8945L100.624 83.7256L100.602 83.6512C100.788 83.3089 101.055 82.77 101.403 82.0345C101.712 81.3804 102.289 80.1304 103.135 78.2845L103.203 78.2456L103.752 78.5878C103.926 78.6989 104.076 78.7845 104.196 78.8567L104.664 79.1223L104.697 79.2012L104.557 79.5078L104.479 79.5356C104.004 79.3134 103.72 79.2138 103.629 79.2367C103.563 79.2523 103.436 79.4215 103.249 79.7445C103.063 80.0675 102.909 80.3563 102.789 80.6112C102.647 80.9149 102.515 81.2271 102.393 81.5478C102.739 81.7589 103.237 82.0182 103.886 82.3256L104.967 82.8356C105.115 82.5689 105.23 82.35 105.31 82.1789L105.628 81.4923C105.776 81.17 105.835 80.9763 105.805 80.9112C105.769 80.8267 105.55 80.6789 105.152 80.4667L105.125 80.39L105.277 80.0656L105.354 80.0389C105.738 80.2367 106.092 80.4119 106.416 80.5645C106.768 80.7304 107.156 80.9052 107.582 81.0889L107.604 81.1634L107.437 81.5145L107.362 81.5412C106.961 81.3523 106.71 81.2678 106.608 81.2878C106.507 81.3089 106.377 81.4534 106.219 81.7245C106.102 81.9289 105.986 82.1523 105.874 82.3912C105.762 82.63 105.652 82.8867 105.565 83.1145L107.158 83.8667C107.615 84.0812 108.062 84.2823 108.498 84.4667L108.832 83.7556C109.312 82.7393 109.566 82.0967 109.594 81.8278C109.599 81.7898 109.593 81.7512 109.576 81.7167C109.503 81.6192 109.412 81.5356 109.309 81.47L108.72 81.0378L108.687 80.9589L108.838 80.64L108.922 80.6078Z" fill="#D6A85A"/>
</svg>
